HIERARCHY
ROOT Hips
{
  OFFSET -33.9132 29.2015 117.021
  CHANNELS 6 Xposition Yposition Zposition Zrotation Xrotation Yrotation
  JOINT LeftUpLeg
  {
    OFFSET 8.64259 1.95398 -2.38835
    CHANNELS 3 Zrotation Xrotation Yrotation
    JOINT LeftLeg
    {
      OFFSET 43.7702 0 0
      CHANNELS 3 Zrotation Xrotation Yrotation
      JOINT LeftFoot
      {
        OFFSET 40.6238 0 0
        CHANNELS 3 Zrotation Xrotation Yrotation
        JOINT LeftToeBase
        {
          OFFSET 12.7242 0 0
          CHANNELS 3 Zrotation Xrotation Yrotation
          End Site
          {
            OFFSET 0 0 0
          }
        }
      }
    }
  }
  JOINT RightUpLeg
  {
    OFFSET -8.2249 1.95398 -2.59336
    CHANNELS 3 Zrotation Xrotation Yrotation
    JOINT RightLeg
    {
      OFFSET 43.5653 0 0
      CHANNELS 3 Zrotation Xrotation Yrotation
      JOINT RightFoot
      {
        OFFSET 40.6238 0 0
        CHANNELS 3 Zrotation Xrotation Yrotation
        JOINT RightToeBase
        {
          OFFSET 12.7242 0 0
          CHANNELS 3 Zrotation Xrotation Yrotation
          End Site
          {
            OFFSET 0 0 0
          }
        }
      }
    }
  }
  JOINT Spine
  {
    OFFSET 0.165834 0.87714 6.61349
    CHANNELS 3 Zrotation Xrotation Yrotation
    JOINT Spine1
    {
      OFFSET 7.38963 1.71661e-005 0
      CHANNELS 3 Zrotation Xrotation Yrotation
      JOINT Spine2
      {
        OFFSET 11.9445 1.14441e-005 0
        CHANNELS 3 Zrotation Xrotation Yrotation
        JOINT Spine3
        {
          OFFSET 14.7254 4.19617e-005 0
          CHANNELS 3 Zrotation Xrotation Yrotation
          JOINT Spine4
          {
            OFFSET 10.9679 0 0
            CHANNELS 3 Zrotation Xrotation Yrotation
            JOINT RightShoulder
            {
              OFFSET 2.46616 -1.6653 3.69651
              CHANNELS 3 Zrotation Xrotation Yrotation
              JOINT RightArm
              {
                OFFSET 13.0012 0 0
                CHANNELS 3 Zrotation Xrotation Yrotation
                JOINT RightForeArm
                {
                  OFFSET 28.7848 1.62311e-005 0
                  CHANNELS 3 Zrotation Xrotation Yrotation
                  JOINT RightHand
                  {
                    OFFSET 26.5688 1.62095e-005 0
                    CHANNELS 3 Zrotation Xrotation Yrotation
                    End Site
                    {
                      OFFSET 0 0 0
                    }
                  }
                }
              }
            }
            JOINT LeftShoulder
            {
              OFFSET 2.38034 -1.29275 -3.7523
              CHANNELS 3 Zrotation Xrotation Yrotation
              JOINT LeftArm
              {
                OFFSET 16.3182 6.07031e-005 0
                CHANNELS 3 Zrotation Xrotation Yrotation
                JOINT LeftForeArm
                {
                  OFFSET 27.0901 0 0
                  CHANNELS 3 Zrotation Xrotation Yrotation
                  JOINT LeftHand
                  {
                    OFFSET 24.5451 1.51738e-005 0
                    CHANNELS 3 Zrotation Xrotation Yrotation
                    End Site
                    {
                      OFFSET 0 0 0
                    }
                  }
                }
              }
            }
            JOINT Neck
            {
              OFFSET 5.0226 -0.0266342 0
              CHANNELS 3 Zrotation Xrotation Yrotation
              JOINT Head
              {
                OFFSET 6.69364 2.86102e-005 0
                CHANNELS 3 Zrotation Xrotation Yrotation
                End Site
                {
                  OFFSET 0 0 0
                }
              }
            }
          }
        }
      }
    }
  }
}
MOTION
Frames:	9
Frame Time:	0.0416667
35.0734 8.82106 41.7479 3.78245 -10.4768 -0.805155 -175.536 -8.92986 91.8631 -19.903 36.376 3.56788 91.3028 23.7084 2.02809 9.01442 -12.2515 3.677 174.126 -13.2523 90.133 -13.2774 -19.6526 -2.33616 89.0121 -22.1364 -1.8134 40.876 -5.55529 1.07581 0.0435812 6.35092 -89.9778 14.172 0.0972934 0.0312418 2.50108 0.0985807 0.0269072 -20.0341 0.083407 0.0590395 -0.0214363 0.083409 0.0590251 97.1423 -11.3224 -96.8036 21.964 26.5092 51.3462 -40.1518 13.9702 -110.959 80.205 -65.0482 -78.7384 -85.0834 -31.6153 83.1113 -0.289793 16.9845 11.9648 129.729 28.1114 -91.3766 0.477435 5.09153 -79.7027 28.8657 -1.93527 -4.43855 5.26275 0.101443 3.12592 
35.0099 8.89831 41.779 3.71511 -10.5263 -0.884995 -175.602 -8.64166 91.791 -20.2399 35.753 3.5959 90.905 22.8788 1.11401 12.4403 -11.2079 5.14002 174.152 -13.3396 90.1531 -13.1 -20.0935 -2.38899 88.5303 -22.206 -2.56479 41.4656 -5.85085 1.46907 0.0885323 6.30538 -90.0003 14.2631 0.175278 -0.0249091 2.59212 0.174006 -0.0326172 -19.9431 0.174655 0.028918 0.069519 0.174657 0.0289061 97.2583 -10.5973 -96.7152 22.4848 25.1006 50.3063 -44.9468 15.2547 -109.509 89.8025 -68.5502 -73.2337 -85.6351 -32.739 82.3065 0.966035 16.8912 12.1282 131.682 29.7271 -94.5083 2.04053 3.72173 -78.223 26.9402 -1.96941 -3.21126 7.14353 -0.513821 1.96813 
35.0226 8.87855 41.7638 3.79415 -10.4963 -0.914926 -175.624 -8.66544 91.7651 -20.1402 35.769 3.58215 91.1577 22.9745 0.918273 12.9801 -11.8233 6.58149 174.11 -13.3413 90.1392 -13.1341 -20.0862 -2.37633 88.4297 -22.2793 -2.89823 42.6675 -6.4699 2.61328 0.075215 6.29542 -89.999 14.283 0.149548 -0.0187386 2.61204 0.14858 -0.0253102 -19.9232 0.148264 0.0270806 0.0894744 0.148262 0.0270744 96.7378 -11.0658 -98.0573 21.8584 26.6338 51.4619 -44.1624 15.0047 -109.7 93.8437 -68.6807 -69.6594 -85.7511 -32.9259 82.1295 1.07815 17.0529 12.4516 132.896 29.448 -94.6981 2.19261 3.77639 -79.928 26.7522 -1.82301 -3.01986 7.12348 -0.482042 1.62312 
35.0562 8.8624 41.774 3.89061 -10.4625 -0.886607 -175.717 -8.6443 91.7268 -20.1771 35.8701 3.67661 91.2274 23.0468 0.943349 14.3436 -12.2382 8.52552 174.097 -13.412 90.1759 -13.0493 -19.8187 -2.35999 88.3185 -22.2577 -3.00552 44.4487 -7.33801 4.3961 0.0549974 6.32865 -89.9986 14.2165 0.109708 -0.0123031 2.54556 0.109057 -0.0171327 -19.9896 0.108329 0.0212293 0.0230169 0.108328 0.0212261 96.8975 -10.9684 -97.6316 22.2006 25.8271 50.641 -46.6423 15.6486 -108.954 81.0752 -69.0213 -82.0722 -85.4765 -32.2617 82.5034 0.369235 16.7459 12.1271 133.339 29.1686 -94.7501 2.16618 3.92995 -80.321 27.3554 -1.85175 -3.35377 7.14271 -0.322125 2.1149 
35.0368 8.87607 41.7787 3.83965 -10.4119 -0.922104 -175.74 -8.62412 91.6837 -20.1045 35.5395 3.67057 91.3303 22.9906 0.694673 16.3457 -12.3635 10.7364 174.149 -13.3926 90.2427 -13.0914 -19.7695 -2.40866 88.0504 -22.3159 -3.52146 46.8644 -8.39661 6.654 0.0692037 6.26231 -90.0086 14.3493 0.132895 -0.0358472 2.67832 0.131183 -0.0416827 -19.8569 0.137517 0.00574784 0.155777 0.137524 0.00572985 96.5039 -10.8574 -98.8117 21.6995 26.6265 53.2128 -40.0508 14.0078 -111.067 104.471 -66.7872 -58.6688 -86.0632 -33.1138 81.5945 0.499975 18.0761 13.1375 126.351 30.0178 -92.1662 -4.24758 8.29583 -73.1975 25.9744 -1.7698 -2.95902 7.74147 -0.446105 1.80699 
35.013 8.86759 41.7775 3.71849 -10.4108 -0.984094 -175.655 -8.62108 91.694 -20.1076 36.0138 3.57951 90.9464 23.0251 1.31861 19.392 -11.9351 13.3103 174.179 -13.4879 90.3085 -13.0475 -20.1721 -2.48473 87.4427 -22.4577 -4.72376 49.8746 -9.552 9.20556 0.0747977 6.27641 -90.0058 14.3211 0.145349 -0.0319914 2.65013 0.143805 -0.0383587 -19.8851 0.14824 0.0131701 0.127551 0.148242 0.0131691 96.7157 -11.6815 -97.8988 21.4753 28.0882 50.849 -47.6358 16.0079 -108.753 85.5448 -70.0342 -78.776 -85.9395 -33.0796 81.8121 0.338291 17.5669 13.0622 128.124 30.0195 -93.0999 -0.816166 5.52308 -73.0947 26.4376 -1.55509 -2.23203 7.4668 -0.561492 1.14545 
34.9942 8.87939 41.7719 3.85717 -10.4031 -0.976181 -175.674 -8.54726 91.7079 -20.1834 36.0622 3.59331 90.8809 23.0321 1.40759 22.5168 -11.4739 16.1625 174.232 -13.5477 90.4537 -13.0686 -19.9614 -2.50581 87.0655 -22.5264 -5.45907 53.0159 -10.5934 11.9689 0.0574715 6.27555 -90.0163 14.3228 0.105893 -0.0474003 2.65191 0.103703 -0.052023 -19.8833 0.115243 -0.0133907 0.129336 0.115242 -0.0133886 96.8155 -11.7136 -97.6045 21.323 28.6606 50.4776 -45.873 15.4182 -109.154 94.1903 -70.1176 -70.74 -85.9478 -33.3204 81.8481 0.724163 17.2741 13.0876 129.965 29.7304 -93.8513 -0.26692 5.33362 -76.3937 26.581 -1.38874 -1.73907 7.25179 -0.6114 0.825456 
35.0739 8.86198 41.7699 3.91391 -10.2751 -0.995385 -175.853 -8.46734 91.5648 -20.1592 35.5482 3.69751 91.3409 22.9493 0.596837 25.1684 -11.6791 19.8771 174.159 -13.5834 90.4515 -12.8977 -20.0759 -2.48433 86.5302 -22.608 -6.41934 56.3374 -11.5209 14.7114 0.0192425 6.24279 -90.0069 14.3883 0.0347911 -0.0186881 2.71733 0.0339311 -0.0202118 -19.8178 0.0387916 -0.00736827 0.194825 0.0387913 -0.00737767 96.4716 -12.141 -98.4281 20.8969 29.82 50.6611 -47.5385 15.8143 -108.627 91.7086 -70.9463 -73.8422 -85.7453 -33.3105 82.2214 0.334328 18.2923 13.4197 122.767 30.0823 -90.6982 -4.99618 8.26227 -70.2951 26.3031 -1.36748 -2.17222 7.52482 -0.424636 0.952776 
35.0579 8.83748 41.7823 3.86004 -10.3251 -0.987445 -175.677 -8.48295 91.6558 -20.2287 35.9596 3.57662 90.9768 23.0553 1.33399 28.2429 -10.7608 22.4031 174.242 -13.8665 90.6067 -12.6317 -20.1115 -2.56659 85.9122 -22.6452 -7.37902 59.6609 -12.2868 17.3677 0.0692467 6.31801 -90.023 14.238 0.125947 -0.0635525 2.56703 0.123027 -0.0690448 -19.9682 0.139222 -0.0227746 0.0444566 0.139222 -0.0227575 97.2322 -11.0524 -96.6303 21.6947 27.7811 50.2269 -43.7444 15.0032 -109.939 95.0763 -69.6701 -69.4998 -85.4975 -31.9647 82.4026 -1.16787 17.7097 12.7851 122.641 30.0748 -90.6248 -4.78061 8.04546 -70.2479 27.8935 -1.60412 -2.22732 6.74065 -0.560071 1.41276 
